<svg width="695" height="357" viewBox="0 0 695 357" fill="none" xmlns="http://www.w3.org/2000/svg">
<g clip-path="url(#clip0_4018_78)">
<path d="M23.8751 162.094V263.697H0.870605V53.781L14.6094 40.0422H52.3113L66.0501 53.781V263.697H43.0456V158.899L23.8751 162.094ZM23.8751 56.9761V144.841L43.0456 141.645V56.9761H23.8751Z" fill="#B70000"/>
<path d="M148.163 246.763V263.697H86.818V40.0422H109.823V246.763H148.163Z" fill="#B70000"/>
<path d="M178.197 263.697H155.193V40.0422H178.197V263.697Z" fill="#B70000"/>
<path d="M291.934 40.0422C293.635 41.7516 295.927 44.0361 298.803 46.9116C301.679 49.7872 303.963 52.0797 305.672 53.781V151.87L290.656 155.065L305.672 161.135V249.958C303.963 251.668 301.679 253.952 298.803 256.828C295.927 259.703 293.635 261.996 291.934 263.697H240.493V40.0422H291.934ZM263.497 56.9761V143.882L282.668 139.409V56.9761H263.497ZM282.668 246.763V156.982L263.497 161.135V246.763H282.668Z" fill="#B70000"/>
<path d="M348.806 162.094V263.697H325.802V53.781L339.54 40.0422H377.242L390.981 53.781V263.697H367.976V158.899L348.806 162.094ZM348.806 56.9761V144.841L367.976 141.645V56.9761H348.806Z" fill="#B70000"/>
<path d="M463.189 40.0422C464.891 41.7516 467.183 44.0361 470.059 46.9116C472.934 49.7872 475.219 52.0797 476.928 53.781V151.87L461.911 155.065L476.928 161.135V249.958L470.059 256.828L463.189 263.697H411.749V40.0422H463.189ZM434.753 56.9761V143.882L453.924 139.409V56.9761H434.753ZM453.924 246.763V156.982L434.753 161.135V246.763H453.924Z" fill="#B70000"/>
<path d="M520.062 162.094V263.697H497.057V53.781L510.796 40.0422H548.498L562.237 53.781V263.697H539.232V158.899L520.062 162.094ZM520.062 56.9761V144.841L539.232 141.645V56.9761H520.062Z" fill="#B70000"/>
<path d="M87.1376 282.189V302.158H476.904V282.189H87.1376Z" fill="#B70000"/>
<path d="M9.55321 302.446H4.24939V289.218L0.00793457 290.728V285.576L9.5612 281.997V302.446H9.55321Z" fill="#B70000"/>
<path d="M19.7135 295.8C14.9528 295.76 12.4607 292.748 12.4607 289.098C12.4607 284.944 15.9273 281.933 20.5123 281.933C25.0972 281.933 28.5639 284.865 28.5639 288.906C28.5639 290.863 27.7731 292.788 26.4631 294.745L21.3031 302.437H14.9449L19.7055 295.792L19.7135 295.8ZM22.9805 289.042C22.9805 287.636 21.958 286.63 20.5203 286.63C19.0825 286.63 18.0441 287.636 18.0441 289.042C18.0441 290.448 19.0825 291.43 20.5203 291.43C21.958 291.43 22.9805 290.408 22.9805 289.042Z" fill="#B70000"/>
<path d="M37.9015 295.8C33.1408 295.76 30.6487 292.748 30.6487 289.098C30.6487 284.944 34.1153 281.933 38.7003 281.933C43.2852 281.933 46.7518 284.865 46.7518 288.906C46.7518 290.863 45.9611 292.788 44.6511 294.745L39.491 302.437H33.1329L37.8935 295.792L37.9015 295.8ZM41.1685 289.042C41.1685 287.636 40.146 286.63 38.7083 286.63C37.2705 286.63 36.2321 287.636 36.2321 289.042C36.2321 290.448 37.2705 291.43 38.7083 291.43C40.146 291.43 41.1685 290.408 41.1685 289.042Z" fill="#B70000"/>
<path d="M63.526 286.382L55.9217 302.445H49.5635L57.2317 287.125H48.6609V282.189H63.5339V286.382H63.526Z" fill="#B70000"/>
<path d="M32.8214 0.223633L14.4497 20.1928H134.265V0.223633H32.8214Z" fill="#B70000"/>
<path d="M178.197 0.223633H155.033V20.1928H178.197V0.223633Z" fill="#B70000"/>
<path d="M694.992 0.223633H390.629V20.1928H694.992V0.223633Z" fill="#B70000"/>
<path d="M638.831 236.364L637.233 228.839H582.757V240.621H631.003L633.079 250.438H582.757V262.22H694.585V250.438H641.706L639.629 240.621H694.585V228.839H641.706L638.831 236.364Z" fill="#B70000"/>
<path d="M591.224 198.398V188.581H598.732L596.712 176.799H589.626L582.757 183.836V203.143L589.626 210.18H602.431L600.41 198.398H591.224Z" fill="#B70000"/>
<path d="M687.715 176.799H603.198L605.21 188.581H686.118V198.398H606.896L608.909 210.18H687.715C688.57 209.309 689.712 208.135 691.15 206.665C692.588 205.196 693.73 204.021 694.585 203.151V183.844C693.73 182.974 692.588 181.8 691.15 180.322C689.712 178.852 688.57 177.678 687.715 176.807V176.799Z" fill="#B70000"/>
<path d="M641.546 135.239H633.079L634.837 146.366H591.224V126.725H582.757V158.148H694.585V146.366H643.463L641.546 135.239Z" fill="#B70000"/>
<path d="M589.626 83.8547H582.757V121.165H589.626V108.401H694.585V96.619H589.626V83.8547Z" fill="#B70000"/>
<path d="M686.118 40.1621V59.7958H643.463L641.546 48.669H633.079L634.837 59.7958H591.224V40.1621H582.757V71.5777H694.585V40.1621H686.118Z" fill="#B70000"/>
<path d="M208.814 0L210.052 1.23809V10.9271L207.983 11.7579V1.52565H206.258V18.6033H207.983V14.4896L210.052 13.6829V18.8909L208.814 20.129H205.419C205.267 19.9772 205.06 19.7695 204.804 19.5139C204.549 19.2583 204.341 19.0506 204.189 18.8988V1.23809L205.427 0H208.822H208.814Z" fill="#B70000"/>
<path d="M226.099 10.9831V20.129H224.031V1.23809L225.269 0H228.663L229.901 1.23809V20.129H227.833V10.6955L226.107 10.9831H226.099ZM226.099 1.52565V9.43345L227.825 9.14589V1.52565H226.099Z" fill="#B70000"/>
<path d="M242.802 1.23809V0H249.359V1.23809H247.115V20.129H245.046V1.23809H242.802Z" fill="#B70000"/>
<path d="M264.344 10.9831V20.129H262.275V1.23809L263.513 0H266.908L268.146 1.23809V20.129H266.078V10.6955L264.352 10.9831H264.344ZM264.344 1.52565V9.43345L266.07 9.14589V1.52565H264.344Z" fill="#B70000"/>
<path d="M287.748 18.6033V20.129H282.229V0H284.298V18.6033H287.748Z" fill="#B70000"/>
<path d="M305.177 0L306.415 1.23809V10.9271L304.347 11.7579V1.52565H302.621V18.6033H304.347V14.4896L306.415 13.6829V18.8909L305.177 20.129H301.783C301.631 19.9772 301.423 19.7695 301.168 19.5139C300.912 19.2583 300.704 19.0506 300.552 18.8988V1.23809L301.791 0H305.185H305.177Z" fill="#B70000"/>
<path d="M322.455 10.9831V20.129H320.386V1.23809L321.624 0H325.019L326.257 1.23809V20.129H324.188V10.6955L322.463 10.9831H322.455ZM322.455 1.52565V9.43345L324.18 9.14589V1.52565H322.455Z" fill="#B70000"/>
<path d="M345.867 18.6033V20.129H340.347V0H342.416V18.6033H345.867Z" fill="#B70000"/>
<path d="M360.788 20.129H358.719V0H360.788V20.129Z" fill="#B70000"/>
<path d="M516.803 281.749C516.955 281.901 517.162 282.109 517.418 282.364C517.673 282.62 517.881 282.828 518.033 282.98V293.619L516.707 293.907L518.033 294.45V301.87H515.964V294.074L514.239 294.45V301.87H512.17V281.741H516.795L516.803 281.749ZM514.239 283.275V292.876L515.964 292.501V283.267H514.239V283.275Z" fill="#B70000"/>
<path d="M537.651 300.361V301.886H532.131V281.757H537.651V283.283H534.2V291.135L536.157 290.815V292.341L534.2 292.684V300.361H537.651Z" fill="#B70000"/>
<path d="M556.566 288.427L554.497 288.858V283.283H552.771V291.223L554.497 290.847L556.566 290.416V300.656C556.102 301.119 555.695 301.527 555.327 301.894H551.933C551.533 301.471 551.118 301.064 550.695 300.656V295.225L552.763 294.761V300.369H554.489V292.429L552.763 292.804L550.695 293.236V282.995C551.118 282.596 551.525 282.181 551.933 281.757H555.327C555.695 282.125 556.102 282.532 556.566 282.995V288.427Z" fill="#B70000"/>
<path d="M569.426 282.988V281.75H575.983V282.988H573.739V301.878H571.67V282.988H569.426Z" fill="#B70000"/>
<path d="M590.96 292.74V301.886H588.892V282.995L590.13 281.757H593.524L594.763 282.995V301.886H592.694V292.453L590.968 292.74H590.96ZM590.96 283.275V291.183L592.686 290.895V283.275H590.96Z" fill="#B70000"/>
<path d="M612.615 300.361V281.757H614.684V300.648C614.532 300.8 614.324 301.008 614.069 301.263C613.813 301.519 613.605 301.727 613.454 301.878H610.059C609.907 301.727 609.699 301.519 609.444 301.263C609.188 301.008 608.981 300.8 608.829 300.648V281.757H610.898V300.361H612.623H612.615Z" fill="#B70000"/>
<path d="M633.399 281.749C633.551 281.901 633.758 282.109 634.014 282.364C634.27 282.62 634.477 282.828 634.629 282.98V293.619L633.303 293.907L634.629 294.45V301.87H632.56V294.074L630.835 294.45V301.87H628.766V281.741H633.391L633.399 281.749ZM630.843 283.275V292.876L632.568 292.501V283.267H630.843V283.275Z" fill="#B70000"/>
<path d="M650.772 292.74V301.886H648.703V282.995L649.941 281.757H653.336L654.574 282.995V301.886H652.506V292.453L650.78 292.74H650.772ZM650.772 283.275V291.183L652.498 290.895V283.275H650.772Z" fill="#B70000"/>
<path d="M672.451 284.945V281.749H674.519V301.878H672.451V287.988L670.725 285.512V301.87H668.656V281.741H670.238L672.451 284.937V284.945Z" fill="#B70000"/>
<path d="M687.459 282.988V281.75H694.017V282.988H691.773V301.878H689.704V282.988H687.459Z" fill="#B70000"/>
</g>
<path d="M656.083 356V338.5H659.333V356H656.083Z" fill="#B70000"/>
<path d="M638.286 356.25C636.919 356.25 635.611 356.058 634.361 355.675C633.111 355.275 632.119 354.767 631.386 354.15L632.511 351.625C633.211 352.175 634.077 352.633 635.111 353C636.144 353.367 637.202 353.55 638.286 353.55C639.202 353.55 639.944 353.45 640.511 353.25C641.077 353.05 641.494 352.783 641.761 352.45C642.027 352.1 642.161 351.708 642.161 351.275C642.161 350.742 641.969 350.317 641.586 350C641.202 349.667 640.702 349.408 640.086 349.225C639.486 349.025 638.811 348.842 638.061 348.675C637.327 348.508 636.586 348.317 635.836 348.1C635.102 347.867 634.427 347.575 633.811 347.225C633.211 346.858 632.719 346.375 632.336 345.775C631.952 345.175 631.761 344.408 631.761 343.475C631.761 342.525 632.011 341.658 632.511 340.875C633.027 340.075 633.802 339.442 634.836 338.975C635.886 338.492 637.211 338.25 638.811 338.25C639.861 338.25 640.902 338.383 641.936 338.65C642.969 338.917 643.869 339.3 644.636 339.8L643.611 342.325C642.827 341.858 642.019 341.517 641.186 341.3C640.352 341.067 639.552 340.95 638.786 340.95C637.886 340.95 637.152 341.058 636.586 341.275C636.036 341.492 635.627 341.775 635.361 342.125C635.111 342.475 634.986 342.875 634.986 343.325C634.986 343.858 635.169 344.292 635.536 344.625C635.919 344.942 636.411 345.192 637.011 345.375C637.627 345.558 638.311 345.742 639.061 345.925C639.811 346.092 640.552 346.283 641.286 346.5C642.036 346.717 642.711 347 643.311 347.35C643.927 347.7 644.419 348.175 644.786 348.775C645.169 349.375 645.361 350.133 645.361 351.05C645.361 351.983 645.102 352.85 644.586 353.65C644.086 354.433 643.311 355.067 642.261 355.55C641.211 356.017 639.886 356.25 638.286 356.25Z" fill="#B70000"/>
<path d="M604.16 356L612.035 338.5H615.235L623.135 356H619.735L612.96 340.225H614.26L607.51 356H604.16ZM607.785 351.95L608.66 349.4H618.11L618.985 351.95H607.785Z" fill="#B70000"/>
<path d="M580.117 356V338.5H588.317C590.417 338.5 592.017 338.917 593.117 339.75C594.217 340.567 594.767 341.667 594.767 343.05C594.767 343.983 594.55 344.783 594.117 345.45C593.683 346.1 593.1 346.608 592.367 346.975C591.65 347.325 590.867 347.5 590.017 347.5L590.467 346.6C591.45 346.6 592.333 346.783 593.117 347.15C593.9 347.5 594.517 348.017 594.967 348.7C595.433 349.383 595.667 350.233 595.667 351.25C595.667 352.75 595.092 353.917 593.942 354.75C592.792 355.583 591.083 356 588.817 356H580.117ZM583.367 353.45H588.617C589.833 353.45 590.767 353.25 591.417 352.85C592.067 352.45 592.392 351.808 592.392 350.925C592.392 350.058 592.067 349.425 591.417 349.025C590.767 348.608 589.833 348.4 588.617 348.4H583.117V345.875H587.967C589.1 345.875 589.967 345.675 590.567 345.275C591.183 344.875 591.492 344.275 591.492 343.475C591.492 342.658 591.183 342.05 590.567 341.65C589.967 341.25 589.1 341.05 587.967 341.05H583.367V353.45Z" fill="#B70000"/>
<path d="M551.416 356L559.291 338.5H562.491L570.391 356H566.991L560.216 340.225H561.516L554.766 356H551.416ZM555.041 351.95L555.916 349.4H565.366L566.241 351.95H555.041Z" fill="#B70000"/>
<path d="M527.373 356V338.5H535.573C537.673 338.5 539.273 338.917 540.373 339.75C541.473 340.567 542.023 341.667 542.023 343.05C542.023 343.983 541.806 344.783 541.373 345.45C540.939 346.1 540.356 346.608 539.623 346.975C538.906 347.325 538.123 347.5 537.273 347.5L537.723 346.6C538.706 346.6 539.589 346.783 540.373 347.15C541.156 347.5 541.773 348.017 542.223 348.7C542.689 349.383 542.923 350.233 542.923 351.25C542.923 352.75 542.348 353.917 541.198 354.75C540.048 355.583 538.339 356 536.073 356H527.373ZM530.623 353.45H535.873C537.089 353.45 538.023 353.25 538.673 352.85C539.323 352.45 539.648 351.808 539.648 350.925C539.648 350.058 539.323 349.425 538.673 349.025C538.023 348.608 537.089 348.4 535.873 348.4H530.373V345.875H535.223C536.356 345.875 537.223 345.675 537.823 345.275C538.439 344.875 538.748 344.275 538.748 343.475C538.748 342.658 538.439 342.05 537.823 341.65C537.223 341.25 536.356 341.05 535.223 341.05H530.623V353.45Z" fill="#B70000"/>
<path d="M497.48 356V338.5H500.73V356H497.48ZM499.105 336.775C498.588 336.775 498.163 336.608 497.83 336.275C497.497 335.942 497.33 335.517 497.33 335C497.33 334.483 497.497 334.058 497.83 333.725C498.163 333.392 498.588 333.225 499.105 333.225C499.605 333.225 500.021 333.392 500.355 333.725C500.705 334.058 500.88 334.483 500.88 335C500.88 335.517 500.705 335.942 500.355 336.275C500.021 336.608 499.605 336.775 499.105 336.775Z" fill="#B70000"/>
<path d="M475.014 356V338.5H478.264V353.25H487.414V356H475.014Z" fill="#B70000"/>
<path d="M446.313 356L454.188 338.5H457.388L465.288 356H461.888L455.113 340.225H456.413L449.663 356H446.313ZM449.938 351.95L450.813 349.4H460.263L461.138 351.95H449.938Z" fill="#B70000"/>
<path d="M406.64 356V338.5H409.315L420.29 351.975H418.965V338.5H422.19V356H419.515L408.54 342.525H409.865V356H406.64Z" fill="#B70000"/>
<path d="M391.157 356V338.5H394.407V356H391.157ZM392.782 336.775C392.265 336.775 391.84 336.608 391.507 336.275C391.173 335.942 391.007 335.517 391.007 335C391.007 334.483 391.173 334.058 391.507 333.725C391.84 333.392 392.265 333.225 392.782 333.225C393.282 333.225 393.698 333.392 394.032 333.725C394.382 334.058 394.557 334.483 394.557 335C394.557 335.517 394.382 335.942 394.032 336.275C393.698 336.608 393.282 336.775 392.782 336.775Z" fill="#B70000"/>
<path d="M363.417 356V338.5H366.092L377.067 351.975H375.742V338.5H378.967V356H376.292L365.317 342.525H366.642V356H363.417Z" fill="#B70000"/>
<path d="M339.169 356V338.5H351.944V341.225H342.419V353.275H352.294V356H339.169ZM342.169 348.45V345.775H350.869V348.45H342.169Z" fill="#B70000"/>
<path d="M320.18 356V341.25H314.38V338.5H329.23V341.25H323.43V356H320.18Z" fill="#B70000"/>
<path d="M293.09 356V338.5H305.865V341.225H296.34V356H293.09ZM296.065 349.3V346.55H304.79V349.3H296.065Z" fill="#B70000"/>
<path d="M272.745 356.25C271.379 356.25 270.12 356.025 268.97 355.575C267.82 355.125 266.82 354.5 265.97 353.7C265.12 352.883 264.462 351.933 263.995 350.85C263.529 349.75 263.295 348.55 263.295 347.25C263.295 345.95 263.529 344.758 263.995 343.675C264.462 342.575 265.12 341.625 265.97 340.825C266.82 340.008 267.82 339.375 268.97 338.925C270.12 338.475 271.37 338.25 272.72 338.25C274.087 338.25 275.337 338.475 276.47 338.925C277.62 339.375 278.62 340.008 279.47 340.825C280.32 341.625 280.979 342.575 281.445 343.675C281.912 344.758 282.145 345.95 282.145 347.25C282.145 348.55 281.912 349.75 281.445 350.85C280.979 351.95 280.32 352.9 279.47 353.7C278.62 354.5 277.62 355.125 276.47 355.575C275.337 356.025 274.095 356.25 272.745 356.25ZM272.72 353.4C273.604 353.4 274.42 353.25 275.17 352.95C275.92 352.65 276.57 352.225 277.12 351.675C277.67 351.108 278.095 350.458 278.395 349.725C278.712 348.975 278.87 348.15 278.87 347.25C278.87 346.35 278.712 345.533 278.395 344.8C278.095 344.05 277.67 343.4 277.12 342.85C276.57 342.283 275.92 341.85 275.17 341.55C274.42 341.25 273.604 341.1 272.72 341.1C271.837 341.1 271.02 341.25 270.27 341.55C269.537 341.85 268.887 342.283 268.32 342.85C267.77 343.4 267.337 344.05 267.02 344.8C266.72 345.533 266.57 346.35 266.57 347.25C266.57 348.133 266.72 348.95 267.02 349.7C267.337 350.45 267.77 351.108 268.32 351.675C268.87 352.225 269.52 352.65 270.27 352.95C271.02 353.25 271.837 353.4 272.72 353.4ZM275.145 336.8C274.729 336.8 274.37 336.667 274.07 336.4C273.787 336.117 273.645 335.75 273.645 335.3C273.645 334.85 273.787 334.483 274.07 334.2C274.37 333.917 274.729 333.775 275.145 333.775C275.562 333.775 275.912 333.917 276.195 334.2C276.495 334.483 276.645 334.85 276.645 335.3C276.645 335.75 276.495 336.117 276.195 336.4C275.912 336.667 275.562 336.8 275.145 336.8ZM270.295 336.8C269.879 336.8 269.52 336.667 269.22 336.4C268.937 336.117 268.795 335.75 268.795 335.3C268.795 334.85 268.937 334.483 269.22 334.2C269.52 333.917 269.879 333.775 270.295 333.775C270.712 333.775 271.062 333.917 271.345 334.2C271.645 334.483 271.795 334.85 271.795 335.3C271.795 335.75 271.645 336.117 271.345 336.4C271.062 336.667 270.712 336.8 270.295 336.8Z" fill="#B70000"/>
<path d="M242.636 351.875L242.461 348.025L251.636 338.5H255.286L247.661 346.6L245.861 348.575L242.636 351.875ZM239.736 356V338.5H242.986V356H239.736ZM251.936 356L245.236 348.025L247.386 345.65L255.736 356H251.936Z" fill="#B70000"/>
<path d="M199.54 356V338.5H206.715C209.049 338.5 210.874 339.05 212.19 340.15C213.524 341.25 214.19 342.775 214.19 344.725C214.19 346.008 213.89 347.117 213.29 348.05C212.69 348.967 211.832 349.675 210.715 350.175C209.615 350.658 208.29 350.9 206.74 350.9H201.34L202.79 349.425V356H199.54ZM210.99 356L206.565 349.65H210.04L214.49 356H210.99ZM202.79 349.775L201.34 348.225H206.59C208.024 348.225 209.099 347.917 209.815 347.3C210.549 346.683 210.915 345.825 210.915 344.725C210.915 343.608 210.549 342.75 209.815 342.15C209.099 341.55 208.024 341.25 206.59 341.25H201.34L202.79 339.65V349.775Z" fill="#B70000"/>
<path d="M184.057 356V338.5H187.307V356H184.057Z" fill="#B70000"/>
<path d="M155.903 356V338.5H163.553C165.453 338.5 167.119 338.867 168.553 339.6C169.986 340.333 171.103 341.35 171.903 342.65C172.703 343.95 173.103 345.483 173.103 347.25C173.103 349 172.703 350.533 171.903 351.85C171.103 353.15 169.986 354.167 168.553 354.9C167.119 355.633 165.453 356 163.553 356H155.903ZM159.153 353.25H163.403C164.703 353.25 165.836 353 166.803 352.5C167.769 352 168.511 351.3 169.028 350.4C169.561 349.5 169.828 348.45 169.828 347.25C169.828 346.033 169.561 344.983 169.028 344.1C168.511 343.2 167.769 342.5 166.803 342C165.836 341.5 164.703 341.25 163.403 341.25H159.153V353.25Z" fill="#B70000"/>
<path d="M133.437 356V338.5H136.687V353.25H145.837V356H133.437Z" fill="#B70000"/>
<path d="M117.953 356V338.5H121.203V356H117.953Z" fill="#B70000"/>
<path d="M98.567 356V349.075L99.292 351.075L91.692 338.5H95.167L101.267 348.625H99.317L105.467 338.5H108.667L101.067 351.075L101.817 349.075V356H98.567Z" fill="#B70000"/>
<path d="M60.334 356.25C59.4506 356.25 58.609 356.158 57.809 355.975C57.009 355.792 56.3173 355.508 55.734 355.125L56.934 352.675C57.4173 352.992 57.9423 353.217 58.509 353.35C59.0756 353.467 59.659 353.525 60.259 353.525C61.909 353.525 63.2173 353.017 64.184 352C65.1506 350.983 65.634 349.483 65.634 347.5C65.634 347.183 65.6256 346.817 65.609 346.4C65.5923 345.967 65.534 345.533 65.434 345.1L66.434 346.2C66.1506 346.883 65.7423 347.458 65.209 347.925C64.6756 348.375 64.0506 348.717 63.334 348.95C62.6173 349.183 61.8256 349.3 60.959 349.3C59.8256 349.3 58.8006 349.083 57.884 348.65C56.984 348.2 56.2673 347.575 55.734 346.775C55.2006 345.958 54.934 345.008 54.934 343.925C54.934 342.758 55.2173 341.758 55.784 340.925C56.3506 340.075 57.1173 339.417 58.084 338.95C59.0673 338.483 60.1506 338.25 61.334 338.25C62.934 338.25 64.2923 338.592 65.409 339.275C66.5423 339.942 67.409 340.917 68.009 342.2C68.609 343.483 68.909 345.067 68.909 346.95C68.909 348.95 68.5423 350.642 67.809 352.025C67.0923 353.408 66.0923 354.458 64.809 355.175C63.5256 355.892 62.034 356.25 60.334 356.25ZM61.584 346.75C62.284 346.75 62.9006 346.625 63.434 346.375C63.9673 346.108 64.384 345.75 64.684 345.3C64.984 344.833 65.134 344.317 65.134 343.75C65.134 343.2 64.9923 342.708 64.709 342.275C64.4256 341.825 64.0173 341.467 63.484 341.2C62.9506 340.933 62.2923 340.8 61.509 340.8C60.8423 340.8 60.2506 340.925 59.734 341.175C59.2173 341.408 58.809 341.75 58.509 342.2C58.2256 342.633 58.084 343.158 58.084 343.775C58.084 344.692 58.4006 345.417 59.034 345.95C59.6673 346.483 60.5173 346.75 61.584 346.75Z" fill="#B70000"/>
<path d="M33.1582 356V353.825L40.1082 347.225C40.6915 346.675 41.1248 346.192 41.4082 345.775C41.6915 345.358 41.8748 344.975 41.9582 344.625C42.0582 344.258 42.1082 343.917 42.1082 343.6C42.1082 342.8 41.8332 342.183 41.2832 341.75C40.7332 341.3 39.9248 341.075 38.8582 341.075C38.0082 341.075 37.2332 341.225 36.5332 341.525C35.8498 341.825 35.2582 342.283 34.7582 342.9L32.4832 341.15C33.1665 340.233 34.0832 339.525 35.2332 339.025C36.3998 338.508 37.6998 338.25 39.1332 338.25C40.3998 338.25 41.4998 338.458 42.4332 338.875C43.3832 339.275 44.1082 339.85 44.6082 340.6C45.1248 341.35 45.3832 342.242 45.3832 343.275C45.3832 343.842 45.3082 344.408 45.1582 344.975C45.0082 345.525 44.7248 346.108 44.3082 346.725C43.8915 347.342 43.2832 348.033 42.4832 348.8L36.5082 354.475L35.8332 353.25H46.0582V356H33.1582Z" fill="#B70000"/>
<defs>
<clipPath id="clip0_4018_78">
<rect width="695" height="302.445" fill="white"/>
</clipPath>
</defs>
</svg>
