<svg width="1080" height="1080" viewBox="0 0 1080 1080" fill="none" xmlns="http://www.w3.org/2000/svg">
<rect width="1080" height="1080" rx="540" fill="#F0EEE9"/>
<g clip-path="url(#clip0_4018_2)">
<path d="M216.875 551.094V652.697H193.871V442.781L207.609 429.042H245.311L259.05 442.781V652.697H236.046V547.899L216.875 551.094ZM216.875 445.976V533.841L236.046 530.646V445.976H216.875Z" fill="#B70000"/>
<path d="M341.163 635.763V652.697H279.818V429.042H302.823V635.763H341.163Z" fill="#B70000"/>
<path d="M371.197 652.697H348.193V429.042H371.197V652.697Z" fill="#B70000"/>
<path d="M484.934 429.042C486.635 430.752 488.927 433.036 491.803 435.912C494.679 438.787 496.963 441.08 498.672 442.781V540.87L483.656 544.065L498.672 550.135V638.958C496.963 640.668 494.679 642.952 491.803 645.828C488.927 648.703 486.635 650.996 484.934 652.697H433.493V429.042H484.934ZM456.497 445.976V532.882L475.668 528.409V445.976H456.497ZM475.668 635.763V545.982L456.497 550.135V635.763H475.668Z" fill="#B70000"/>
<path d="M541.806 551.094V652.697H518.802V442.781L532.54 429.042H570.242L583.981 442.781V652.697H560.976V547.899L541.806 551.094ZM541.806 445.976V533.841L560.976 530.646V445.976H541.806Z" fill="#B70000"/>
<path d="M656.189 429.042C657.891 430.752 660.183 433.036 663.059 435.912C665.934 438.787 668.219 441.08 669.928 442.781V540.87L654.911 544.065L669.928 550.135V638.958L663.059 645.828L656.189 652.697H604.749V429.042H656.189ZM627.753 445.976V532.882L646.924 528.409V445.976H627.753ZM646.924 635.763V545.982L627.753 550.135V635.763H646.924Z" fill="#B70000"/>
<path d="M713.062 551.094V652.697H690.057V442.781L703.796 429.042H741.498L755.237 442.781V652.697H732.232V547.899L713.062 551.094ZM713.062 445.976V533.841L732.232 530.646V445.976H713.062Z" fill="#B70000"/>
<path d="M280.138 671.189V691.158H669.904V671.189H280.138Z" fill="#B70000"/>
<path d="M202.553 691.446H197.249V678.218L193.008 679.728V674.576L202.561 670.997V691.446H202.553Z" fill="#B70000"/>
<path d="M212.714 684.8C207.953 684.76 205.461 681.748 205.461 678.098C205.461 673.944 208.927 670.933 213.512 670.933C218.097 670.933 221.564 673.865 221.564 677.906C221.564 679.863 220.773 681.788 219.463 683.745L214.303 691.437H207.945L212.706 684.792L212.714 684.8ZM215.98 678.042C215.98 676.636 214.958 675.63 213.52 675.63C212.082 675.63 211.044 676.636 211.044 678.042C211.044 679.448 212.082 680.43 213.52 680.43C214.958 680.43 215.98 679.408 215.98 678.042Z" fill="#B70000"/>
<path d="M230.901 684.8C226.141 684.76 223.649 681.748 223.649 678.098C223.649 673.944 227.115 670.933 231.7 670.933C236.285 670.933 239.752 673.865 239.752 677.906C239.752 679.863 238.961 681.788 237.651 683.745L232.491 691.437H226.133L230.894 684.792L230.901 684.8ZM234.168 678.042C234.168 676.636 233.146 675.63 231.708 675.63C230.27 675.63 229.232 676.636 229.232 678.042C229.232 679.448 230.27 680.43 231.708 680.43C233.146 680.43 234.168 679.408 234.168 678.042Z" fill="#B70000"/>
<path d="M256.526 675.382L248.922 691.445H242.563L250.232 676.125H241.661V671.189H256.534V675.382H256.526Z" fill="#B70000"/>
<path d="M225.821 389.224L207.45 409.193H327.265V389.224H225.821Z" fill="#B70000"/>
<path d="M371.197 389.224H348.033V409.193H371.197V389.224Z" fill="#B70000"/>
<path d="M887.992 389.224H583.629V409.193H887.992V389.224Z" fill="#B70000"/>
<path d="M831.831 625.364L830.233 617.839H775.757V629.621H824.003L826.079 639.438H775.757V651.22H887.585V639.438H834.706L832.629 629.621H887.585V617.839H834.706L831.831 625.364Z" fill="#B70000"/>
<path d="M784.224 587.398V577.581H791.732L789.712 565.799H782.626L775.757 572.836V592.143L782.626 599.18H795.431L793.41 587.398H784.224Z" fill="#B70000"/>
<path d="M880.715 565.799H796.198L798.21 577.581H879.118V587.398H799.896L801.909 599.18H880.715C881.57 598.309 882.712 597.135 884.15 595.665C885.588 594.196 886.73 593.021 887.585 592.151V572.844C886.73 571.974 885.588 570.8 884.15 569.322C882.712 567.852 881.57 566.678 880.715 565.807V565.799Z" fill="#B70000"/>
<path d="M834.546 524.239H826.079L827.837 535.366H784.224V515.725H775.757V547.148H887.585V535.366H836.463L834.546 524.239Z" fill="#B70000"/>
<path d="M782.626 472.855H775.757V510.165H782.626V497.401H887.585V485.619H782.626V472.855Z" fill="#B70000"/>
<path d="M879.118 429.162V448.796H836.463L834.546 437.669H826.079L827.837 448.796H784.224V429.162H775.757V460.578H887.585V429.162H879.118Z" fill="#B70000"/>
<path d="M401.814 389L403.052 390.238V399.927L400.983 400.758V390.526H399.258V407.603H400.983V403.49L403.052 402.683V407.891L401.814 409.129H398.419C398.267 408.977 398.06 408.77 397.804 408.514C397.549 408.258 397.341 408.051 397.189 407.899V390.238L398.427 389H401.822H401.814Z" fill="#B70000"/>
<path d="M419.099 399.983V409.129H417.031V390.238L418.269 389H421.663L422.901 390.238V409.129H420.833V399.696L419.107 399.983H419.099ZM419.099 390.526V398.433L420.825 398.146V390.526H419.099Z" fill="#B70000"/>
<path d="M435.802 390.238V389H442.359V390.238H440.115V409.129H438.046V390.238H435.802Z" fill="#B70000"/>
<path d="M457.344 399.983V409.129H455.275V390.238L456.513 389H459.908L461.146 390.238V409.129H459.078V399.696L457.352 399.983H457.344ZM457.344 390.526V398.433L459.07 398.146V390.526H457.344Z" fill="#B70000"/>
<path d="M480.748 407.603V409.129H475.229V389H477.298V407.603H480.748Z" fill="#B70000"/>
<path d="M498.177 389L499.415 390.238V399.927L497.347 400.758V390.526H495.621V407.603H497.347V403.49L499.415 402.683V407.891L498.177 409.129H494.783C494.631 408.977 494.423 408.77 494.168 408.514C493.912 408.258 493.704 408.051 493.552 407.899V390.238L494.791 389H498.185H498.177Z" fill="#B70000"/>
<path d="M515.455 399.983V409.129H513.386V390.238L514.624 389H518.019L519.257 390.238V409.129H517.188V399.696L515.463 399.983H515.455ZM515.455 390.526V398.433L517.18 398.146V390.526H515.455Z" fill="#B70000"/>
<path d="M538.867 407.603V409.129H533.347V389H535.416V407.603H538.867Z" fill="#B70000"/>
<path d="M553.788 409.129H551.719V389H553.788V409.129Z" fill="#B70000"/>
<path d="M709.803 670.749C709.955 670.901 710.162 671.109 710.418 671.364C710.673 671.62 710.881 671.828 711.033 671.98V682.619L709.707 682.907L711.033 683.45V690.87H708.964V683.074L707.239 683.45V690.87H705.17V670.741H709.795L709.803 670.749ZM707.239 672.275V681.876L708.964 681.501V672.267H707.239V672.275Z" fill="#B70000"/>
<path d="M730.651 689.361V690.886H725.131V670.757H730.651V672.283H727.2V680.135L729.157 679.815V681.341L727.2 681.684V689.361H730.651Z" fill="#B70000"/>
<path d="M749.566 677.427L747.497 677.858V672.283H745.771V680.223L747.497 679.847L749.566 679.416V689.656C749.102 690.119 748.695 690.527 748.327 690.894H744.933C744.533 690.471 744.118 690.064 743.695 689.656V684.225L745.763 683.761V689.369H747.489V681.429L745.763 681.804L743.695 682.236V671.995C744.118 671.596 744.525 671.181 744.933 670.757H748.327C748.695 671.125 749.102 671.532 749.566 671.995V677.427Z" fill="#B70000"/>
<path d="M762.426 671.988V670.75H768.983V671.988H766.739V690.878H764.67V671.988H762.426Z" fill="#B70000"/>
<path d="M783.96 681.74V690.886H781.892V671.995L783.13 670.757H786.524L787.763 671.995V690.886H785.694V681.453L783.968 681.74H783.96ZM783.96 672.275V680.183L785.686 679.895V672.275H783.96Z" fill="#B70000"/>
<path d="M805.615 689.361V670.757H807.684V689.648C807.532 689.8 807.324 690.008 807.069 690.263C806.813 690.519 806.605 690.727 806.454 690.878H803.059C802.907 690.727 802.699 690.519 802.444 690.263C802.188 690.008 801.981 689.8 801.829 689.648V670.757H803.898V689.361H805.623H805.615Z" fill="#B70000"/>
<path d="M826.399 670.749C826.551 670.901 826.758 671.109 827.014 671.364C827.27 671.62 827.477 671.828 827.629 671.98V682.619L826.303 682.907L827.629 683.45V690.87H825.56V683.074L823.835 683.45V690.87H821.766V670.741H826.391L826.399 670.749ZM823.843 672.275V681.876L825.568 681.501V672.267H823.843V672.275Z" fill="#B70000"/>
<path d="M843.772 681.74V690.886H841.703V671.995L842.941 670.757H846.336L847.574 671.995V690.886H845.506V681.453L843.78 681.74H843.772ZM843.772 672.275V680.183L845.498 679.895V672.275H843.772Z" fill="#B70000"/>
<path d="M865.451 673.945V670.749H867.519V690.878H865.451V676.988L863.725 674.512V690.87H861.656V670.741H863.238L865.451 673.937V673.945Z" fill="#B70000"/>
<path d="M880.459 671.988V670.75H887.017V671.988H884.773V690.878H882.704V671.988H880.459Z" fill="#B70000"/>
</g>
<path d="M849.083 745V727.5H852.333V745H849.083Z" fill="#B70000"/>
<path d="M831.286 745.25C829.919 745.25 828.611 745.058 827.361 744.675C826.111 744.275 825.119 743.767 824.386 743.15L825.511 740.625C826.211 741.175 827.077 741.633 828.111 742C829.144 742.367 830.202 742.55 831.286 742.55C832.202 742.55 832.944 742.45 833.511 742.25C834.077 742.05 834.494 741.783 834.761 741.45C835.027 741.1 835.161 740.708 835.161 740.275C835.161 739.742 834.969 739.317 834.586 739C834.202 738.667 833.702 738.408 833.086 738.225C832.486 738.025 831.811 737.842 831.061 737.675C830.327 737.508 829.586 737.317 828.836 737.1C828.102 736.867 827.427 736.575 826.811 736.225C826.211 735.858 825.719 735.375 825.336 734.775C824.952 734.175 824.761 733.408 824.761 732.475C824.761 731.525 825.011 730.658 825.511 729.875C826.027 729.075 826.802 728.442 827.836 727.975C828.886 727.492 830.211 727.25 831.811 727.25C832.861 727.25 833.902 727.383 834.936 727.65C835.969 727.917 836.869 728.3 837.636 728.8L836.611 731.325C835.827 730.858 835.019 730.517 834.186 730.3C833.352 730.067 832.552 729.95 831.786 729.95C830.886 729.95 830.152 730.058 829.586 730.275C829.036 730.492 828.627 730.775 828.361 731.125C828.111 731.475 827.986 731.875 827.986 732.325C827.986 732.858 828.169 733.292 828.536 733.625C828.919 733.942 829.411 734.192 830.011 734.375C830.627 734.558 831.311 734.742 832.061 734.925C832.811 735.092 833.552 735.283 834.286 735.5C835.036 735.717 835.711 736 836.311 736.35C836.927 736.7 837.419 737.175 837.786 737.775C838.169 738.375 838.361 739.133 838.361 740.05C838.361 740.983 838.102 741.85 837.586 742.65C837.086 743.433 836.311 744.067 835.261 744.55C834.211 745.017 832.886 745.25 831.286 745.25Z" fill="#B70000"/>
<path d="M797.16 745L805.035 727.5H808.235L816.135 745H812.735L805.96 729.225H807.26L800.51 745H797.16ZM800.785 740.95L801.66 738.4H811.11L811.985 740.95H800.785Z" fill="#B70000"/>
<path d="M773.117 745V727.5H781.317C783.417 727.5 785.017 727.917 786.117 728.75C787.217 729.567 787.767 730.667 787.767 732.05C787.767 732.983 787.55 733.783 787.117 734.45C786.683 735.1 786.1 735.608 785.367 735.975C784.65 736.325 783.867 736.5 783.017 736.5L783.467 735.6C784.45 735.6 785.333 735.783 786.117 736.15C786.9 736.5 787.517 737.017 787.967 737.7C788.433 738.383 788.667 739.233 788.667 740.25C788.667 741.75 788.092 742.917 786.942 743.75C785.792 744.583 784.083 745 781.817 745H773.117ZM776.367 742.45H781.617C782.833 742.45 783.767 742.25 784.417 741.85C785.067 741.45 785.392 740.808 785.392 739.925C785.392 739.058 785.067 738.425 784.417 738.025C783.767 737.608 782.833 737.4 781.617 737.4H776.117V734.875H780.967C782.1 734.875 782.967 734.675 783.567 734.275C784.183 733.875 784.492 733.275 784.492 732.475C784.492 731.658 784.183 731.05 783.567 730.65C782.967 730.25 782.1 730.05 780.967 730.05H776.367V742.45Z" fill="#B70000"/>
<path d="M744.416 745L752.291 727.5H755.491L763.391 745H759.991L753.216 729.225H754.516L747.766 745H744.416ZM748.041 740.95L748.916 738.4H758.366L759.241 740.95H748.041Z" fill="#B70000"/>
<path d="M720.373 745V727.5H728.573C730.673 727.5 732.273 727.917 733.373 728.75C734.473 729.567 735.023 730.667 735.023 732.05C735.023 732.983 734.806 733.783 734.373 734.45C733.939 735.1 733.356 735.608 732.623 735.975C731.906 736.325 731.123 736.5 730.273 736.5L730.723 735.6C731.706 735.6 732.589 735.783 733.373 736.15C734.156 736.5 734.773 737.017 735.223 737.7C735.689 738.383 735.923 739.233 735.923 740.25C735.923 741.75 735.348 742.917 734.198 743.75C733.048 744.583 731.339 745 729.073 745H720.373ZM723.623 742.45H728.873C730.089 742.45 731.023 742.25 731.673 741.85C732.323 741.45 732.648 740.808 732.648 739.925C732.648 739.058 732.323 738.425 731.673 738.025C731.023 737.608 730.089 737.4 728.873 737.4H723.373V734.875H728.223C729.356 734.875 730.223 734.675 730.823 734.275C731.439 733.875 731.748 733.275 731.748 732.475C731.748 731.658 731.439 731.05 730.823 730.65C730.223 730.25 729.356 730.05 728.223 730.05H723.623V742.45Z" fill="#B70000"/>
<path d="M690.48 745V727.5H693.73V745H690.48ZM692.105 725.775C691.588 725.775 691.163 725.608 690.83 725.275C690.497 724.942 690.33 724.517 690.33 724C690.33 723.483 690.497 723.058 690.83 722.725C691.163 722.392 691.588 722.225 692.105 722.225C692.605 722.225 693.021 722.392 693.355 722.725C693.705 723.058 693.88 723.483 693.88 724C693.88 724.517 693.705 724.942 693.355 725.275C693.021 725.608 692.605 725.775 692.105 725.775Z" fill="#B70000"/>
<path d="M668.014 745V727.5H671.264V742.25H680.414V745H668.014Z" fill="#B70000"/>
<path d="M639.313 745L647.188 727.5H650.388L658.288 745H654.888L648.113 729.225H649.413L642.663 745H639.313ZM642.938 740.95L643.813 738.4H653.263L654.138 740.95H642.938Z" fill="#B70000"/>
<path d="M599.64 745V727.5H602.315L613.29 740.975H611.965V727.5H615.19V745H612.515L601.54 731.525H602.865V745H599.64Z" fill="#B70000"/>
<path d="M584.157 745V727.5H587.407V745H584.157ZM585.782 725.775C585.265 725.775 584.84 725.608 584.507 725.275C584.173 724.942 584.007 724.517 584.007 724C584.007 723.483 584.173 723.058 584.507 722.725C584.84 722.392 585.265 722.225 585.782 722.225C586.282 722.225 586.698 722.392 587.032 722.725C587.382 723.058 587.557 723.483 587.557 724C587.557 724.517 587.382 724.942 587.032 725.275C586.698 725.608 586.282 725.775 585.782 725.775Z" fill="#B70000"/>
<path d="M556.417 745V727.5H559.092L570.067 740.975H568.742V727.5H571.967V745H569.292L558.317 731.525H559.642V745H556.417Z" fill="#B70000"/>
<path d="M532.169 745V727.5H544.944V730.225H535.419V742.275H545.294V745H532.169ZM535.169 737.45V734.775H543.869V737.45H535.169Z" fill="#B70000"/>
<path d="M513.18 745V730.25H507.38V727.5H522.23V730.25H516.43V745H513.18Z" fill="#B70000"/>
<path d="M486.09 745V727.5H498.865V730.225H489.34V745H486.09ZM489.065 738.3V735.55H497.79V738.3H489.065Z" fill="#B70000"/>
<path d="M465.745 745.25C464.379 745.25 463.12 745.025 461.97 744.575C460.82 744.125 459.82 743.5 458.97 742.7C458.12 741.883 457.462 740.933 456.995 739.85C456.529 738.75 456.295 737.55 456.295 736.25C456.295 734.95 456.529 733.758 456.995 732.675C457.462 731.575 458.12 730.625 458.97 729.825C459.82 729.008 460.82 728.375 461.97 727.925C463.12 727.475 464.37 727.25 465.72 727.25C467.087 727.25 468.337 727.475 469.47 727.925C470.62 728.375 471.62 729.008 472.47 729.825C473.32 730.625 473.979 731.575 474.445 732.675C474.912 733.758 475.145 734.95 475.145 736.25C475.145 737.55 474.912 738.75 474.445 739.85C473.979 740.95 473.32 741.9 472.47 742.7C471.62 743.5 470.62 744.125 469.47 744.575C468.337 745.025 467.095 745.25 465.745 745.25ZM465.72 742.4C466.604 742.4 467.42 742.25 468.17 741.95C468.92 741.65 469.57 741.225 470.12 740.675C470.67 740.108 471.095 739.458 471.395 738.725C471.712 737.975 471.87 737.15 471.87 736.25C471.87 735.35 471.712 734.533 471.395 733.8C471.095 733.05 470.67 732.4 470.12 731.85C469.57 731.283 468.92 730.85 468.17 730.55C467.42 730.25 466.604 730.1 465.72 730.1C464.837 730.1 464.02 730.25 463.27 730.55C462.537 730.85 461.887 731.283 461.32 731.85C460.77 732.4 460.337 733.05 460.02 733.8C459.72 734.533 459.57 735.35 459.57 736.25C459.57 737.133 459.72 737.95 460.02 738.7C460.337 739.45 460.77 740.108 461.32 740.675C461.87 741.225 462.52 741.65 463.27 741.95C464.02 742.25 464.837 742.4 465.72 742.4ZM468.145 725.8C467.729 725.8 467.37 725.667 467.07 725.4C466.787 725.117 466.645 724.75 466.645 724.3C466.645 723.85 466.787 723.483 467.07 723.2C467.37 722.917 467.729 722.775 468.145 722.775C468.562 722.775 468.912 722.917 469.195 723.2C469.495 723.483 469.645 723.85 469.645 724.3C469.645 724.75 469.495 725.117 469.195 725.4C468.912 725.667 468.562 725.8 468.145 725.8ZM463.295 725.8C462.879 725.8 462.52 725.667 462.22 725.4C461.937 725.117 461.795 724.75 461.795 724.3C461.795 723.85 461.937 723.483 462.22 723.2C462.52 722.917 462.879 722.775 463.295 722.775C463.712 722.775 464.062 722.917 464.345 723.2C464.645 723.483 464.795 723.85 464.795 724.3C464.795 724.75 464.645 725.117 464.345 725.4C464.062 725.667 463.712 725.8 463.295 725.8Z" fill="#B70000"/>
<path d="M435.636 740.875L435.461 737.025L444.636 727.5H448.286L440.661 735.6L438.861 737.575L435.636 740.875ZM432.736 745V727.5H435.986V745H432.736ZM444.936 745L438.236 737.025L440.386 734.65L448.736 745H444.936Z" fill="#B70000"/>
<path d="M392.54 745V727.5H399.715C402.049 727.5 403.874 728.05 405.19 729.15C406.524 730.25 407.19 731.775 407.19 733.725C407.19 735.008 406.89 736.117 406.29 737.05C405.69 737.967 404.832 738.675 403.715 739.175C402.615 739.658 401.29 739.9 399.74 739.9H394.34L395.79 738.425V745H392.54ZM403.99 745L399.565 738.65H403.04L407.49 745H403.99ZM395.79 738.775L394.34 737.225H399.59C401.024 737.225 402.099 736.917 402.815 736.3C403.549 735.683 403.915 734.825 403.915 733.725C403.915 732.608 403.549 731.75 402.815 731.15C402.099 730.55 401.024 730.25 399.59 730.25H394.34L395.79 728.65V738.775Z" fill="#B70000"/>
<path d="M377.057 745V727.5H380.307V745H377.057Z" fill="#B70000"/>
<path d="M348.903 745V727.5H356.553C358.453 727.5 360.119 727.867 361.553 728.6C362.986 729.333 364.103 730.35 364.903 731.65C365.703 732.95 366.103 734.483 366.103 736.25C366.103 738 365.703 739.533 364.903 740.85C364.103 742.15 362.986 743.167 361.553 743.9C360.119 744.633 358.453 745 356.553 745H348.903ZM352.153 742.25H356.403C357.703 742.25 358.836 742 359.803 741.5C360.769 741 361.511 740.3 362.028 739.4C362.561 738.5 362.828 737.45 362.828 736.25C362.828 735.033 362.561 733.983 362.028 733.1C361.511 732.2 360.769 731.5 359.803 731C358.836 730.5 357.703 730.25 356.403 730.25H352.153V742.25Z" fill="#B70000"/>
<path d="M326.437 745V727.5H329.687V742.25H338.837V745H326.437Z" fill="#B70000"/>
<path d="M310.953 745V727.5H314.203V745H310.953Z" fill="#B70000"/>
<path d="M291.567 745V738.075L292.292 740.075L284.692 727.5H288.167L294.267 737.625H292.317L298.467 727.5H301.667L294.067 740.075L294.817 738.075V745H291.567Z" fill="#B70000"/>
<path d="M253.334 745.25C252.451 745.25 251.609 745.158 250.809 744.975C250.009 744.792 249.317 744.508 248.734 744.125L249.934 741.675C250.417 741.992 250.942 742.217 251.509 742.35C252.076 742.467 252.659 742.525 253.259 742.525C254.909 742.525 256.217 742.017 257.184 741C258.151 739.983 258.634 738.483 258.634 736.5C258.634 736.183 258.626 735.817 258.609 735.4C258.592 734.967 258.534 734.533 258.434 734.1L259.434 735.2C259.151 735.883 258.742 736.458 258.209 736.925C257.676 737.375 257.051 737.717 256.334 737.95C255.617 738.183 254.826 738.3 253.959 738.3C252.826 738.3 251.801 738.083 250.884 737.65C249.984 737.2 249.267 736.575 248.734 735.775C248.201 734.958 247.934 734.008 247.934 732.925C247.934 731.758 248.217 730.758 248.784 729.925C249.351 729.075 250.117 728.417 251.084 727.95C252.067 727.483 253.151 727.25 254.334 727.25C255.934 727.25 257.292 727.592 258.409 728.275C259.542 728.942 260.409 729.917 261.009 731.2C261.609 732.483 261.909 734.067 261.909 735.95C261.909 737.95 261.542 739.642 260.809 741.025C260.092 742.408 259.092 743.458 257.809 744.175C256.526 744.892 255.034 745.25 253.334 745.25ZM254.584 735.75C255.284 735.75 255.901 735.625 256.434 735.375C256.967 735.108 257.384 734.75 257.684 734.3C257.984 733.833 258.134 733.317 258.134 732.75C258.134 732.2 257.992 731.708 257.709 731.275C257.426 730.825 257.017 730.467 256.484 730.2C255.951 729.933 255.292 729.8 254.509 729.8C253.842 729.8 253.251 729.925 252.734 730.175C252.217 730.408 251.809 730.75 251.509 731.2C251.226 731.633 251.084 732.158 251.084 732.775C251.084 733.692 251.401 734.417 252.034 734.95C252.667 735.483 253.517 735.75 254.584 735.75Z" fill="#B70000"/>
<path d="M226.158 745V742.825L233.108 736.225C233.691 735.675 234.125 735.192 234.408 734.775C234.691 734.358 234.875 733.975 234.958 733.625C235.058 733.258 235.108 732.917 235.108 732.6C235.108 731.8 234.833 731.183 234.283 730.75C233.733 730.3 232.925 730.075 231.858 730.075C231.008 730.075 230.233 730.225 229.533 730.525C228.85 730.825 228.258 731.283 227.758 731.9L225.483 730.15C226.166 729.233 227.083 728.525 228.233 728.025C229.4 727.508 230.7 727.25 232.133 727.25C233.4 727.25 234.5 727.458 235.433 727.875C236.383 728.275 237.108 728.85 237.608 729.6C238.125 730.35 238.383 731.242 238.383 732.275C238.383 732.842 238.308 733.408 238.158 733.975C238.008 734.525 237.725 735.108 237.308 735.725C236.891 736.342 236.283 737.033 235.483 737.8L229.508 743.475L228.833 742.25H239.058V745H226.158Z" fill="#B70000"/>
<defs>
<clipPath id="clip0_4018_2">
<rect width="695" height="302.445" fill="white" transform="translate(193 389)"/>
</clipPath>
</defs>
</svg>
